<mxfile host="app.diagrams.net" modified="2023-11-07T08:52:40.611Z" agent="Mozilla/5.0 (Windows NT 10.0; Win64; x64) AppleWebKit/537.36 (KHTML, like Gecko) Chrome/119.0.0.0 Safari/537.36" version="22.0.8" etag="jdJG1ZFzTlNzD_sHY1H5" type="github">
  <diagram name="Page-1" id="7snRd_zGJLiqXOGshKAb">
    <mxGraphModel>
      <root>
        <mxCell id="0" />
        <mxCell id="1" parent="0" />
      </root>
    </mxGraphModel>
  </diagram>
</mxfile>
